<svg xmlns="http://www.w3.org/2000/svg" version="1.1" viewBox="0 0 1024 432">
<path fill="#000000" d="M619.991150,154.007690 C620.119934,151.485046 621.577820,150.582611 623.952942,150.602768 C628.784851,150.643799 633.618408,150.549911 638.449280,150.631454 C639.988464,150.657440 642.203003,150.204163 642.183044,152.740616 C642.163757,155.200607 639.943848,154.670471 638.415283,154.949661 C637.456970,155.124695 636.484192,155.220154 635.251892,155.387421 C635.635010,157.313385 636.109009,159.006622 636.281982,160.730072 C636.531799,163.220398 636.280457,165.197800 632.875427,165.533340 C629.118286,165.903580 626.716736,168.973389 624.825500,171.772644 C622.211975,175.640900 625.635010,180.612228 630.457458,181.001785 C633.033447,181.209869 636.992859,179.348022 637.859009,182.991119 C638.836975,187.105042 638.933899,191.793030 634.003601,194.311630 C629.817993,196.449768 628.864441,199.432281 630.103271,204.155060 C632.460754,213.142639 634.145752,222.316467 635.839600,231.463043 C636.453979,234.780548 638.005615,235.871033 641.234619,235.772842 C647.228455,235.590637 653.234619,235.582336 659.229248,235.741730 C662.895020,235.839203 664.457275,234.098373 664.519531,230.701981 C664.607971,225.870819 664.695251,221.035583 664.588562,216.206375 C664.521973,213.194183 665.327087,211.351639 668.759094,211.645752 C671.897644,211.914719 672.728821,210.128784 672.707703,207.317322 C672.643921,198.819153 672.589294,190.317612 672.760010,181.821976 C672.916199,174.052292 670.595337,165.674606 678.160461,159.473511 C678.421509,159.509766 679.161072,160.024734 678.965271,160.642441 C677.399292,165.582779 680.760254,169.900726 680.622009,174.614883 C680.559448,176.747726 683.713440,176.506439 683.277405,178.916092 C682.752502,181.816711 680.773926,183.438354 678.283447,185.149963 C680.786865,188.297974 681.927429,191.080093 678.839233,194.781921 C677.151123,196.805649 677.952087,200.422699 679.025879,204.082718 C683.097900,200.490585 685.362549,193.116806 691.857117,198.269073 C696.799438,202.189835 693.415466,206.661087 691.213684,211.237396 C695.505920,211.361832 699.678650,213.676208 701.785034,207.222183 C702.457886,205.160492 706.014648,203.684738 707.887451,201.290604 C709.004761,199.862305 712.286255,199.909454 713.763123,202.679977 C715.801331,206.503311 718.854492,210.085709 715.417297,215.565704 C718.862366,214.770645 721.210266,214.538834 721.288452,218.033783 C721.347839,220.693100 720.653259,222.114594 717.568176,221.774811 C715.553894,221.552948 715.710999,223.545059 715.176392,224.924149 C711.617310,234.104965 713.553528,243.136673 715.634094,252.202438 C716.638123,256.577118 717.286255,261.041901 718.462524,265.366058 C719.425781,268.907349 718.584045,273.828033 724.444458,274.339722 C725.077637,274.394958 725.721863,276.164856 726.070312,277.234100 C726.682861,279.113983 726.751953,281.512726 729.368225,281.604584 C733.159119,281.737640 737.295166,282.876892 740.644409,280.980560 C742.915833,279.694458 741.336487,276.338226 741.566162,273.921692 C741.654480,272.992188 741.312317,272.021729 741.187500,271.208191 C739.061951,270.187653 736.467651,272.337189 735.043030,269.745880 C734.526794,268.806885 734.574768,267.581970 735.410645,266.978973 C737.652283,265.362000 740.246887,265.854126 742.629883,266.511261 C745.879822,267.407471 746.081604,270.310089 746.052246,273.005798 C745.945190,282.841919 745.821899,281.731781 755.129211,281.751892 C770.127075,281.784271 785.125061,281.792206 800.122925,281.765656 C806.195557,281.754913 806.499329,281.271484 804.617554,275.419556 C801.319763,265.164398 801.551453,264.844147 812.345764,264.806976 C815.011963,264.797821 817.678833,264.843262 820.344238,264.798615 C823.387207,264.747650 826.197205,265.686829 827.702820,268.263336 C830.106873,272.377319 833.559509,272.996490 837.847168,272.801819 C841.815491,272.621613 845.815735,273.089813 849.797546,273.341858 C850.212341,273.368073 850.597412,273.864777 852.005432,274.847595 C845.601013,277.600037 839.442261,275.258850 833.823730,277.341614 C834.828857,280.689240 837.548767,279.761322 839.608826,279.766998 C857.772705,279.816956 875.936829,279.755768 894.100891,279.746002 C931.928955,279.725708 969.756958,279.707428 1007.585022,279.727753 C1009.695557,279.728912 1011.905823,279.232574 1014.409668,280.663239 C1012.098450,284.932678 1010.962036,289.909119 1005.315369,291.443665 C1003.109985,292.043030 1001.864563,293.998535 1000.349915,295.506958 C975.553955,320.201172 950.708069,344.846252 926.067261,369.694550 C920.785583,375.020691 915.019653,377.469391 907.450073,377.465820 C668.483582,377.353516 429.516998,377.378815 190.550415,377.359192 C182.888794,377.358551 175.216873,376.804718 167.568939,377.067535 C161.702621,377.269196 155.815750,377.552094 150.514465,381.191681 C146.799026,383.742462 142.053482,382.053619 137.776535,382.255981 C135.140549,382.380676 133.273621,382.676544 133.222305,386.003174 C133.187836,388.237518 132.971161,391.568726 130.165527,391.451721 C126.723114,391.308197 127.646912,387.867218 127.585281,385.479126 C127.568481,384.828186 127.582741,384.176453 127.582741,383.851624 C126.690086,382.276733 125.412781,382.511200 124.300957,382.299377 C121.113556,381.692078 120.004623,379.345581 119.795021,376.509155 C119.578522,373.579315 120.633240,370.925140 123.716125,370.382690 C127.563072,369.705811 127.957863,367.463440 127.676117,364.294739 C127.502296,362.339691 127.390511,359.706207 130.032440,359.566589 C132.644012,359.428558 132.469131,362.253387 133.044052,364.046783 C133.291595,364.819000 133.224319,365.696198 133.272720,366.527313 C133.363495,368.085999 133.464233,369.649170 135.604324,369.635071 C137.560669,369.622131 138.193054,368.143311 138.331802,366.635010 C138.590469,363.822968 138.586060,360.985657 138.661209,358.158081 C138.719238,355.974060 137.304535,355.385529 135.452682,355.168304 C126.688087,354.140198 117.907303,353.367859 109.079689,353.136841 C106.335350,353.065063 105.235878,354.686890 104.617378,356.950897 C103.126755,362.407349 101.508018,367.835266 100.236557,373.342926 C99.386505,377.025177 97.598320,378.475616 93.676544,378.417786 C83.679756,378.270355 83.642616,378.455811 82.067581,368.713074 C81.510643,365.268036 80.919640,361.797394 80.793594,358.322174 C80.657295,354.564178 79.123207,353.044312 75.318924,352.924805 C65.841606,352.627167 63.853710,350.007111 64.946480,340.386017 C65.659241,334.110626 66.269386,327.819183 66.723335,321.520355 C67.025459,317.328125 69.660538,313.626099 70.025146,309.915405 C70.497696,305.106140 70.802521,300.056366 70.571342,295.070862 C70.347191,290.236786 70.063675,285.270355 71.208298,279.997742 C74.008278,281.143188 73.864792,283.065826 73.902702,284.766083 C73.988136,288.597076 74.170906,292.447144 73.896057,296.259338 C73.571793,300.757050 75.510223,302.056183 79.771095,301.897705 C87.260368,301.619049 94.767029,301.712067 102.264816,301.794647 C106.497047,301.841278 110.305069,303.001038 112.544220,307.475494 C115.574669,303.027679 119.744057,301.704742 124.551796,301.716980 C134.883591,301.743225 145.216064,301.778625 155.547226,301.689240 C162.543488,301.628754 168.537674,294.258789 167.160553,287.612915 C165.789352,280.995605 167.343353,279.118347 174.703918,279.110413 C218.531067,279.063019 262.358276,279.077118 306.185455,279.068878 C319.350281,279.066376 332.515076,279.048492 345.679901,279.059387 C349.165558,279.062256 352.557251,279.177521 356.006287,280.325378 C360.898285,281.953552 362.556824,280.455200 363.964935,275.288940 C365.620392,269.214935 366.517151,263.392731 363.191132,257.469574 C361.067108,253.686966 362.805176,249.800919 364.305298,246.284943 C362.689636,244.017715 359.380890,246.075500 357.918610,242.888519 C364.430023,242.124039 370.713593,241.179688 377.032288,240.737045 C379.921875,240.534637 382.689453,240.188492 385.201843,238.862808 C387.229706,237.792816 388.429718,235.672791 388.004547,233.511932 C387.595856,231.434616 385.384583,231.258209 383.481659,231.256378 C381.481995,231.254471 379.479919,231.318359 377.483429,231.239441 C375.895538,231.176682 374.042664,231.610214 373.148682,229.359634 C375.500702,226.649597 378.689972,228.000793 381.469177,227.878311 C387.812012,227.598770 388.614166,226.921722 388.672028,220.557053 C388.685669,219.057373 388.708008,217.557602 388.702606,216.057968 C388.691650,213.030777 390.349396,211.267334 393.191467,211.076080 C396.233826,210.871368 397.828156,212.968979 397.980225,215.739792 C398.198730,219.720520 398.004333,223.724411 397.971313,227.718292 C397.944092,231.011093 397.693726,234.362930 400.311340,236.726990 C400.793488,236.805923 400.974670,236.895996 401.106262,236.848495 C408.845886,234.054108 408.806915,234.052200 408.987213,225.488571 C409.034760,223.230591 408.577545,220.817978 410.412201,218.504410 C412.981995,221.497665 411.878448,224.892654 411.805542,227.947281 C411.502869,240.631088 411.415375,240.640747 424.139679,240.640335 C428.137726,240.640198 432.138855,240.638229 436.132568,240.482498 C438.350006,240.396011 440.353241,239.894226 441.117981,237.215469 C441.885498,234.527069 440.039124,234.123383 438.343323,233.435944 C436.525574,232.699097 436.647064,231.098206 436.798737,229.622543 C437.002258,227.642365 437.447845,225.688446 437.723083,223.713989 C439.028107,214.351929 439.016266,214.288025 448.593811,213.710327 C452.555969,213.471329 453.750916,211.847687 451.938782,208.237534 C451.715637,207.792953 451.272797,207.391235 451.223297,206.937820 C450.888153,203.867523 449.514404,200.121475 452.843628,198.286102 C456.336731,196.360382 456.816254,200.597168 458.552856,202.272400 C460.612640,204.259415 461.579803,206.554276 461.357178,209.423218 C461.102539,212.705490 462.874420,213.799423 465.958130,213.719635 C470.621033,213.598984 475.289307,213.685608 479.955322,213.686203 C481.980103,213.686462 483.832184,213.689209 484.968719,211.360626 C485.942413,209.365677 488.375122,209.442596 490.231171,208.897324 C494.700226,207.584412 499.338379,206.790161 503.718292,205.247238 C507.746185,203.828278 509.972229,204.752335 511.256195,208.823074 C511.873169,210.779175 512.323730,213.312332 515.054749,213.563538 C518.015137,213.835815 521.077271,213.910660 520.460815,209.394836 C520.255615,207.891403 520.078979,206.392258 521.580872,205.203384 C524.623230,204.980591 525.410339,207.574905 526.151245,209.560928 C527.433350,212.997772 529.685913,214.030014 533.085205,213.698105 C537.413147,213.275513 541.925232,214.498276 545.807556,212.867462 C546.447571,211.010590 545.545227,210.459549 544.925049,209.676071 C543.017090,207.265488 543.122009,204.714310 545.084290,202.440674 C546.376648,200.943268 548.141296,200.436829 550.036133,201.553925 C552.957825,203.276382 553.129150,206.400009 551.882141,208.557129 C550.210510,211.448853 550.474426,215.102509 547.880188,217.559280 C547.302795,218.106094 547.184937,219.455353 547.307373,220.374969 C548.644653,230.413803 551.165222,240.199722 553.282715,249.983109 C561.708923,249.625870 562.007690,249.907654 560.571655,256.786682 C566.470764,258.242035 572.457397,257.462891 578.387390,257.490662 C580.196228,257.499115 580.994751,256.019897 581.318298,254.526337 C583.493774,244.486130 585.588013,234.428329 587.591370,224.931580 C586.651917,223.255463 585.583252,223.282074 584.628052,223.064987 C583.362549,222.777420 582.424072,222.135315 582.603760,220.694839 C582.748230,219.536545 583.686340,218.902451 584.723511,218.975830 C588.855469,219.268219 589.519104,216.497238 590.189514,213.349670 C592.544678,202.291992 595.070801,191.270828 597.469971,180.222336 C597.781006,178.789978 597.729126,177.278854 597.836975,175.910461 C596.299988,174.525085 594.517822,174.481766 592.949829,174.567322 C588.826111,174.792419 587.649963,173.061340 587.501709,168.999557 C587.317017,163.938553 589.379150,162.608276 593.964722,162.840988 C596.261475,162.957550 599.599854,164.191055 600.698303,161.296875 C601.746765,158.534332 598.441589,157.216690 596.902222,155.407562 C595.179199,153.382721 593.038269,151.709839 591.346741,149.662766 C588.611633,146.352814 585.432129,144.422943 580.967407,145.001053 C576.854187,145.533646 575.474609,143.606659 575.477295,139.502869 C575.480103,135.247116 576.851257,133.496277 581.238586,133.526428 C586.676697,133.563782 592.204529,134.224274 598.551208,132.386475 C593.720276,126.531303 589.303467,121.050140 584.684753,115.744720 C584.119019,115.094894 582.474426,115.289268 581.325500,115.259628 C577.650696,115.164833 575.955200,113.294716 575.726929,109.659515 C575.332031,103.367798 575.792542,102.828819 582.626465,102.690079 C581.903748,98.850853 583.342834,95.369530 584.543457,91.887451 C585.104614,90.259857 586.765686,90.011284 588.304504,89.941040 C590.301453,89.849876 592.301575,89.795021 594.300537,89.789894 C597.563538,89.781517 600.979980,89.956757 602.097046,93.723717 C603.195374,97.427864 602.334229,100.702797 597.900940,102.253197 C598.562866,102.516037 598.816772,102.704369 599.071411,102.705421 C612.652039,102.761398 610.532410,104.241585 610.667114,91.052109 C610.790588,78.968491 610.509399,66.877739 610.825928,54.801125 C610.909546,51.610836 606.514893,49.349995 609.893250,46.032715 C604.236633,44.485382 603.558167,42.703789 605.545166,35.719105 C607.894836,35.549706 606.733154,38.151890 608.194580,38.929947 C611.210022,39.542877 614.881836,37.154442 617.603027,39.858173 C615.978210,48.152737 615.288574,56.212826 615.235413,64.326149 C615.163574,75.296150 615.324463,86.269058 615.129150,97.236153 C615.059143,101.162819 616.056580,103.324654 620.396851,102.816376 C624.702942,102.312096 625.289795,104.973114 625.224365,108.428299 C625.156677,111.996742 625.117371,115.321938 620.189148,115.209549 C617.572632,115.149879 614.953613,115.198975 612.356140,115.198975 C611.792297,119.288818 613.141235,122.427216 613.752808,125.650414 C614.528809,129.740097 617.931335,128.687805 620.596985,128.699860 C623.118835,128.711258 626.239319,129.542038 626.813660,125.544525 C626.884033,125.055206 627.095398,124.587097 627.229797,124.105888 C630.466492,112.512833 628.232239,114.066498 640.735352,113.774940 C644.613464,113.684517 646.864929,115.059067 647.243042,118.892006 C647.797974,124.518166 651.593994,129.240417 651.417175,135.120193 C651.311523,138.633560 650.330261,140.453003 646.553833,140.270416 C636.571533,139.787796 629.374390,146.808685 620.761292,150.029083 C619.319885,150.568024 619.118774,152.007355 619.878418,154.094360 C620.459106,156.447174 619.921082,158.837067 622.336792,159.223450 C624.824341,159.621307 625.533813,157.002609 627.400269,155.922745 C625.026001,153.650620 622.242065,154.940750 619.991150,154.007690 M182.183655,361.440125 C175.448761,360.861328 168.897446,358.256775 161.712189,358.899628 C165.804062,369.457367 166.613174,370.057404 176.711212,369.712555 C185.364624,369.417023 194.014908,369.022766 202.664200,368.621094 C204.227982,368.548462 205.889709,368.594421 207.545425,367.079254 C199.399796,364.109985 191.108856,363.305786 182.183655,361.440125 M611.510681,190.915131 C610.253052,185.836151 608.995361,180.757187 607.737732,175.678207 C605.025146,183.110855 603.412048,190.523804 601.739685,197.923355 C599.321716,208.622284 599.979248,209.301697 610.882202,208.733688 C614.502014,208.545105 615.086487,206.950668 614.361511,203.918961 C613.394531,199.874863 612.536926,195.804626 611.510681,190.915131 M615.699463,177.894089 C615.388733,176.227249 615.124756,174.293457 612.822571,174.671051 C610.737488,175.013046 611.072937,176.907440 611.367493,178.312119 C613.238159,187.233704 615.196289,196.137100 617.151062,205.040894 C617.608032,207.122498 618.455994,208.775543 621.840332,207.893494 C619.813721,198.060684 617.816833,188.371933 615.699463,177.894089 M148.658783,369.498779 C152.305969,371.507874 155.747177,370.572418 159.479797,369.016968 C158.311554,364.802551 155.844971,361.683838 153.740463,358.394806 C152.855469,357.011719 151.275116,356.609955 149.796021,357.015747 C148.190903,357.456116 148.396561,359.072723 148.370651,360.349274 C148.313934,363.144409 148.355621,365.941559 148.658783,369.498779 M599.507690,118.989342 C597.554993,114.641785 594.735107,113.926521 588.905640,116.546066 C592.619446,121.574593 596.685059,126.131027 601.853699,129.951080 C601.117432,126.565002 600.381165,123.178932 599.507690,118.989342 M593.466980,147.502136 C596.262756,149.971054 598.246033,153.361084 602.111877,155.366165 C603.057678,152.373352 602.769409,149.841003 601.838196,147.320587 C600.607361,143.988922 597.683960,145.252716 595.389709,145.139328 C594.526184,145.096664 591.874817,144.071609 593.466980,147.502136 M620.641357,146.569031 C624.211548,144.754440 627.781738,142.939850 631.351929,141.125259 C627.719299,140.264648 624.424744,140.226486 621.131592,140.281052 C619.526672,140.307632 617.489746,140.022018 617.451355,142.463333 C617.422607,144.293625 616.937988,146.684158 620.641357,146.569031 M681.609436,206.659515 C680.747925,208.111847 679.886353,209.564194 678.796814,211.400970 C683.626648,211.804108 684.291321,210.218277 681.609436,206.659515 z"/>
</svg>
